<?xml version="1.0" standalone="no"?>
<!DOCTYPE svg PUBLIC "-//W3C//DTD SVG 20010904//EN" "http://www.w3.org/TR/2001/REC-SVG-20010904/DTD/svg10.dtd">
<svg version="1.0" xmlns="http://www.w3.org/2000/svg" width="507.000000pt" height="492.000000pt"
    viewBox="0 0 507.000000 492.000000" preserveAspectRatio="xMidYMid meet">
    <g transform="translate(0.000000,492.000000) scale(0.100000,-0.100000)" fill="#000000" stroke="none">
        <path d="M2335 4894 c-569 -58 -1091 -302 -1484 -693 -191 -190 -325 -371
-446 -604 -408 -782 -358 -1725 130 -2457 482 -723 1296 -1130 2160 -1079
1159 68 2095 935 2261 2094 21 147 24 477 5 615 -61 450 -227 851 -494 1195
-327 421 -794 727 -1311 860 -207 53 -316 66 -561 70 -121 2 -238 1 -260 -1z
m585 -118 c1017 -174 1787 -958 1936 -1971 25 -166 25 -497 1 -654 -79 -506
-302 -954 -652 -1307 -638 -643 -1591 -859 -2440 -552 -723 261 -1279 874
-1464 1616 -55 220 -66 314 -66 577 1 205 4 259 24 368 99 558 365 1032 776
1385 352 302 793 496 1255 552 117 14 519 5 630 -14z" />
    </g>
</svg>