<?xml version="1.0" standalone="no"?>
<!DOCTYPE svg PUBLIC "-//W3C//DTD SVG 20010904//EN" "http://www.w3.org/TR/2001/REC-SVG-20010904/DTD/svg10.dtd">
<svg version="1.0" xmlns="http://www.w3.org/2000/svg" width="623.000000pt" height="92.000000pt"
    viewBox="0 0 623.000000 92.000000" preserveAspectRatio="xMidYMid meet">

    <g transform="translate(0.000000,92.000000) scale(0.100000,-0.100000)" fill="#000000" stroke="none">
        <path d="M226 676 c-102 -112 -186 -207 -186 -210 0 -8 362 -421 372 -425 6
-2 8 5 4 15 -8 29 -86 342 -86 349 0 3 1256 5 2791 5 2653 0 2790 -1 2785 -17
-13 -43 -86 -343 -86 -353 0 -5 62 61 137 147 75 87 160 185 190 219 l53 61
-188 207 c-103 113 -188 202 -190 197 -2 -5 17 -88 41 -185 l45 -176 -2789 0
c-1534 0 -2789 3 -2789 8 0 4 20 86 45 182 24 96 42 176 41 178 -2 1 -87 -89
-190 -202z" />
    </g>
</svg>