<?xml version="1.0" standalone="no"?>
<!DOCTYPE svg PUBLIC "-//W3C//DTD SVG 20010904//EN" "http://www.w3.org/TR/2001/REC-SVG-20010904/DTD/svg10.dtd">
<svg version="1.0" xmlns="http://www.w3.org/2000/svg" width="529.000000pt" height="471.000000pt"
    viewBox="0 0 529.000000 471.000000" preserveAspectRatio="xMidYMid meet">

    <g transform="translate(0.000000,471.000000) scale(0.100000,-0.100000)" fill="#000000" stroke="none">
        <path d="M1406 4237 l-639 -392 -279 -695 c-153 -382 -281 -706 -283 -720 -4
-17 82 -242 278 -730 l282 -705 640 -427 640 -428 712 0 713 0 569 427 569
426 285 713 286 712 -283 707 c-156 388 -289 713 -297 720 -8 8 -266 187 -574
399 l-560 385 -710 0 -710 -1 -639 -391z m2554 -115 l534 -368 268 -668 267
-668 -267 -669 -268 -668 -534 -401 -533 -400 -671 0 -671 0 -605 404 -605
404 -263 658 c-144 363 -262 665 -262 672 0 6 119 310 265 674 l266 663 602
367 602 367 670 0 670 0 535 -367z" />
    </g>
</svg>