<?xml version="1.0" standalone="no"?>
<!DOCTYPE svg PUBLIC "-//W3C//DTD SVG 20010904//EN" "http://www.w3.org/TR/2001/REC-SVG-20010904/DTD/svg10.dtd">
<svg version="1.0" xmlns="http://www.w3.org/2000/svg" width="511.000000pt" height="489.000000pt"
    viewBox="0 0 511.000000 489.000000" preserveAspectRatio="xMidYMid meet">

    <g transform="translate(0.000000,489.000000) scale(0.100000,-0.100000)" fill="#000000" stroke="none">
        <path d="M1295 2487 l-1210 -2362 1227 -3 c676 -1 1781 -1 2456 0 l1229 3
-1241 2363 c-682 1299 -1242 2362 -1245 2362 -3 0 -551 -1063 -1216 -2363z
m2394 -117 l1121 -2135 -2267 -3 c-1246 -1 -2268 0 -2270 1 -2 2 19 46 46 98
27 52 195 380 374 729 178 349 646 1263 1040 2030 393 767 729 1424 747 1460
l32 64 28 -54 c16 -30 533 -1016 1149 -2190z" />
    </g>
</svg>