<?xml version="1.0" standalone="no"?>
<!DOCTYPE svg PUBLIC "-//W3C//DTD SVG 20010904//EN" "http://www.w3.org/TR/2001/REC-SVG-20010904/DTD/svg10.dtd">
<svg version="1.0" xmlns="http://www.w3.org/2000/svg" width="485.000000pt" height="515.000000pt"
    viewBox="0 0 485.000000 515.000000" preserveAspectRatio="xMidYMid meet">

    <g transform="translate(0.000000,515.000000) scale(0.100000,-0.100000)" fill="#000000" stroke="none">
        <path d="M1440 4489 c-525 -341 -1055 -686 -1177 -766 l-223 -145 0 -1177 0
-1176 652 -593 652 -592 1056 1 1055 0 648 591 647 591 -2 1180 -3 1181 -835
544 c-459 299 -987 642 -1172 763 -186 120 -339 219 -341 219 -1 0 -432 -279
-957 -621z m2088 -249 l1112 -724 0 -1120 -1 -1121 -612 -557 -612 -557 -1016
0 -1017 -1 -238 217 c-132 120 -407 370 -612 557 l-372 339 2 1125 3 1125 745
484 c410 267 909 592 1110 724 201 131 372 237 380 235 8 -1 516 -328 1128
-726z" />
    </g>
</svg>