<?xml version="1.0" standalone="no"?>
<!DOCTYPE svg PUBLIC "-//W3C//DTD SVG 20010904//EN" "http://www.w3.org/TR/2001/REC-SVG-20010904/DTD/svg10.dtd">
<svg version="1.0" xmlns="http://www.w3.org/2000/svg" width="489.000000pt" height="510.000000pt"
    viewBox="0 0 489.000000 510.000000" preserveAspectRatio="xMidYMid meet">

    <g transform="translate(0.000000,510.000000) scale(0.100000,-0.100000)" fill="#000000" stroke="none">
        <path d="M2035 4784 c-231 -152 -750 -489 -1152 -751 l-733 -477 0 -1163 0
-1163 1158 -579 1157 -579 1158 579 1157 579 0 1164 0 1164 -1155 751 c-635
413 -1158 751 -1162 750 -5 0 -197 -124 -428 -275z m1559 -589 l1076 -700 0
-1097 0 -1098 -1102 -551 -1103 -551 -1103 551 -1102 551 2 1098 3 1097 50 33
c28 18 523 340 1100 716 l1050 684 26 -17 c15 -9 511 -331 1103 -716z" />
    </g>
</svg>