<?xml version="1.0" standalone="no"?>
<!DOCTYPE svg PUBLIC "-//W3C//DTD SVG 20010904//EN" "http://www.w3.org/TR/2001/REC-SVG-20010904/DTD/svg10.dtd">
<svg version="1.0" xmlns="http://www.w3.org/2000/svg" width="469.000000pt" height="532.000000pt"
    viewBox="0 0 469.000000 532.000000" preserveAspectRatio="xMidYMid meet">

    <g transform="translate(0.000000,532.000000) scale(0.100000,-0.100000)" fill="#000000" stroke="none">
        <path d="M878 4540 l-668 -700 0 -965 0 -965 424 -607 424 -606 669 -292 c367
-160 682 -296 698 -303 30 -12 54 -2 669 292 l638 304 117 168 c65 93 256 366
424 608 l307 439 0 961 0 962 -546 629 c-300 347 -575 663 -611 703 l-64 72
-907 0 -907 -1 -667 -699z m2854 93 c233 -268 492 -566 575 -663 l153 -175 0
-926 c0 -885 -1 -927 -18 -950 -11 -13 -187 -265 -392 -559 -204 -294 -382
-545 -394 -557 -11 -12 -287 -148 -612 -303 l-592 -282 -658 287 -659 287
-402 576 -403 576 0 926 1 925 415 435 c229 239 513 537 632 663 l216 227 858
0 857 0 423 -487z" />
    </g>
</svg>