<?xml version="1.0" standalone="no"?>
<!DOCTYPE svg PUBLIC "-//W3C//DTD SVG 20010904//EN" "http://www.w3.org/TR/2001/REC-SVG-20010904/DTD/svg10.dtd">
<svg version="1.0" xmlns="http://www.w3.org/2000/svg" width="497.000000pt" height="502.000000pt"
    viewBox="0 0 497.000000 502.000000" preserveAspectRatio="xMidYMid meet">

    <g transform="translate(0.000000,502.000000) scale(0.100000,-0.100000)" fill="#000000" stroke="none">
        <path d="M1135 4444 c-269 -283 -590 -619 -712 -747 l-222 -232 -1 -1041 0
-1041 372 -339 c205 -186 527 -480 716 -651 l342 -313 973 0 972 0 653 653
652 652 0 1036 0 1035 -212 245 c-117 135 -411 473 -653 752 l-440 507 -975
-1 -975 0 -490 -515z m2615 121 c124 -143 400 -460 613 -705 l387 -445 0 -990
0 -990 -612 -612 -613 -613 -925 0 -925 0 -150 138 c-83 75 -373 340 -644 587
-272 248 -506 460 -522 473 l-29 23 0 993 0 993 153 159 c83 88 336 353 562
589 225 237 461 483 524 548 l115 117 920 -2 920 -3 226 -260z" />
    </g>
</svg>