<?xml version="1.0" standalone="no"?>
<!DOCTYPE svg PUBLIC "-//W3C//DTD SVG 20010904//EN" "http://www.w3.org/TR/2001/REC-SVG-20010904/DTD/svg10.dtd">
<svg version="1.0" xmlns="http://www.w3.org/2000/svg" width="551.000000pt" height="453.000000pt"
    viewBox="0 0 551.000000 453.000000" preserveAspectRatio="xMidYMid meet">

    <g transform="translate(0.000000,453.000000) scale(0.100000,-0.100000)" fill="#000000" stroke="none">
        <path d="M1484 3553 c-708 -533 -1288 -972 -1288 -976 1 -5 291 -560 645
-1233 l644 -1224 1295 0 1295 0 74 143 c40 78 329 629 642 1223 313 595 569
1086 569 1091 0 9 -2570 1943 -2582 1943 -3 0 -585 -435 -1294 -967z m2515
-102 c692 -519 1201 -908 1199 -915 -2 -7 -273 -527 -603 -1154 l-600 -1142
-1216 0 -1216 0 -553 1052 c-305 579 -577 1098 -607 1153 l-52 101 1207 906
c664 499 1214 906 1223 904 8 -2 556 -409 1218 -905z" />
    </g>
</svg>