<?xml version="1.0" standalone="no"?>
<!DOCTYPE svg PUBLIC "-//W3C//DTD SVG 20010904//EN" "http://www.w3.org/TR/2001/REC-SVG-20010904/DTD/svg10.dtd">
<svg version="1.0" xmlns="http://www.w3.org/2000/svg" width="480.000000pt" height="520.000000pt"
    viewBox="0 0 480.000000 520.000000" preserveAspectRatio="xMidYMid meet">

    <g transform="translate(0.000000,520.000000) scale(0.100000,-0.100000)" fill="#000000" stroke="none">
        <path d="M42 2613 l3 -2558 2352 -3 c1294 -1 2353 0 2353 3 0 5 -296 328
-1190 1300 -96 105 -404 440 -685 745 -280 305 -562 611 -625 680 -133 144
-908 986 -1669 1815 -289 314 -528 572 -533 573 -4 2 -7 -1148 -6 -2555z m724
1612 c318 -346 653 -711 744 -810 91 -99 398 -432 681 -740 1077 -1172 1791
-1948 2004 -2179 121 -132 237 -259 258 -283 l39 -43 -2166 0 -2166 0 0 2357
c0 1999 2 2355 14 2343 7 -8 274 -298 592 -645z" />
    </g>
</svg>