<?xml version="1.0" standalone="no"?>
<!DOCTYPE svg PUBLIC "-//W3C//DTD SVG 20010904//EN" "http://www.w3.org/TR/2001/REC-SVG-20010904/DTD/svg10.dtd">
<svg version="1.0" xmlns="http://www.w3.org/2000/svg" width="528.000000pt" height="473.000000pt"
    viewBox="0 0 528.000000 473.000000" preserveAspectRatio="xMidYMid meet">

    <g transform="translate(0.000000,473.000000) scale(0.100000,-0.100000)" fill="#000000" stroke="none">
        <path d="M2652 4670 c-16 -36 -163 -374 -327 -751 l-298 -687 -989 -197 c-544
-109 -985 -201 -981 -205 4 -4 387 -181 851 -395 463 -213 842 -392 842 -396
0 -4 -117 -431 -260 -949 -143 -519 -259 -944 -258 -945 2 -2 343 278 758 621
l754 623 51 -43 c27 -23 298 -247 600 -496 303 -250 614 -507 693 -573 79 -65
146 -117 148 -114 4 4 -367 1820 -381 1867 -4 12 171 116 684 410 380 217 687
398 683 401 -4 3 -428 92 -942 198 -514 105 -938 195 -942 199 -3 4 -149 336
-323 737 -175 402 -321 737 -325 745 -6 11 -16 -2 -38 -50z m347 -965 l252
-580 802 -164 c441 -91 810 -167 820 -171 14 -4 -146 -101 -570 -343 l-589
-336 168 -808 c92 -444 167 -813 165 -820 -1 -7 -144 105 -317 248 -173 144
-371 307 -440 364 -69 57 -219 180 -333 275 -115 94 -214 170 -220 167 -7 -3
-298 -241 -647 -530 -349 -289 -636 -525 -637 -523 -2 1 301 1105 406 1481 21
77 37 143 35 146 -2 3 -329 156 -728 340 -398 184 -723 336 -721 338 2 2 379
78 837 170 l833 167 267 615 c147 337 274 632 283 654 l17 39 32 -74 c18 -41
146 -336 285 -655z" />
    </g>
</svg>