<?xml version="1.0" standalone="no"?>
<!DOCTYPE svg PUBLIC "-//W3C//DTD SVG 20010904//EN" "http://www.w3.org/TR/2001/REC-SVG-20010904/DTD/svg10.dtd">
<svg version="1.0" xmlns="http://www.w3.org/2000/svg" width="690.000000pt" height="361.000000pt"
    viewBox="0 0 690.000000 361.000000" preserveAspectRatio="xMidYMid meet">

    <g transform="translate(0.000000,361.000000) scale(0.100000,-0.100000)" fill="#000000" stroke="none">
        <path d="M1840 3575 c-8 -10 -1734 -3454 -1758 -3507 l-12 -28 3380 0 3380 0
-887 1771 -888 1771 -1603 1 c-1059 1 -1606 -1 -1612 -8z m3945 -1765 l815
-1630 -3150 0 c-1732 0 -3150 3 -3150 7 0 5 1610 3216 1627 3246 2 4 688 7
1524 7 l1519 0 815 -1630z" />
    </g>
</svg>